<svg width="40" height="40" viewBox="0 0 40 40" fill="none" xmlns="http://www.w3.org/2000/svg" xmlns:xlink="http://www.w3.org/1999/xlink">
<path d="M8.375,20C8.375,18.018 8.921,16.162 9.87,14.572L9.87,7.829L3.127,7.829C0.451,11.305 -1,15.541 -1,20C-1,24.459 0.451,28.695 3.127,32.171L9.87,32.171L9.87,25.428C8.921,23.838 8.375,21.982 8.375,20L8.375,20Z" fill="#FBBD00"/>
<path d="M19,30.625L14.313,35.313L19,40C23.459,40 27.695,38.55 31.171,35.873L31.171,29.138L24.435,29.138C22.832,30.09 20.967,30.625 19,30.625L19,30.625Z" fill="#0F9D58"/>
<path d="M9.869,25.428L3.126,32.171C3.656,32.859 4.233,33.518 4.858,34.142C8.635,37.92 13.657,40 19,40L19,30.625C15.123,30.625 11.725,28.538 9.869,25.428Z" fill="#31AA52"/>
<path d="M39,20C39,18.783 38.89,17.564 38.673,16.377L38.497,15.416L19,15.416L19,24.791L28.488,24.791C27.567,26.624 26.15,28.119 24.435,29.138L31.171,35.873C31.859,35.344 32.518,34.767 33.142,34.142C36.92,30.365 39,25.342 39,20L39,20Z" fill="#3C79E6"/>
<path d="M26.513,12.487L27.342,13.316L33.971,6.686L33.142,5.858C29.365,2.08 24.342,0 19,0L14.313,4.688L19,9.375C21.838,9.375 24.506,10.48 26.513,12.487Z" fill="#CF2D48"/>
<path d="M19,9.375L19,0C13.658,0 8.635,2.08 4.858,5.858C4.233,6.482 3.656,7.141 3.127,7.829L9.869,14.572C11.725,11.462 15.123,9.375 19,9.375L19,9.375Z" fill="#EB4132"/>
</svg>
